<svg xmlns="http://www.w3.org/2000/svg" width="16" height="16" viewBox="0 0 150 150">
  <path fill="#419EDA" fill-rule="evenodd" d="M 45.0 2.0 L 54.0 16.0 L 74.0 8.0 L 95.0 16.0 L 104.0 2.0 L 132.0 23.0 L 120.0 35.0 L 134.0 51.0 L 132.0 73.0 L 149.0 76.0 L 145.0 96.0 L 138.0 110.0 L 123.0 103.0 L 111.0 122.0 L 91.0 126.0 L 91.0 144.0 L 58.0 144.0 L 58.0 126.0 L 37.0 121.0 L 26.0 103.0 L 11.0 110.0 L 3.0 93.0 L 0.0 76.0 L 17.0 73.0 L 15.0 51.0 L 29.0 35.0 L 18.0 22.0 L 45.0 2.0 Z M 73.0 33.0 L 94.0 43.0 L 111.0 59.0 L 107.0 81.0 L 97.0 102.0 L 75.0 105.0 L 52.0 102.0 L 42.0 81.0 L 38.0 59.0 L 55.0 43.0 L 73.0 33.0 Z M 56.0 56.0 L 63.0 57.0 L 68.0 63.0 L 68.0 68.0 L 62.0 75.0 L 53.0 74.0 L 49.0 68.0 L 50.0 61.0 L 56.0 56.0 Z M 88.0 56.0 L 95.0 57.0 L 100.0 63.0 L 100.0 68.0 L 94.0 75.0 L 85.0 74.0 L 81.0 68.0 L 82.0 61.0 L 88.0 56.0 Z"/>
</svg>